HIERARCHY
ROOT Hips
{
	OFFSET 0.00000 0.00000 0.00000
	CHANNELS 6 Xposition Yposition Zposition Zrotation Yrotation Xrotation 
	JOINT LHipJoint
	{
		OFFSET 0 0 0
		CHANNELS 3 Zrotation Yrotation Xrotation
		JOINT LeftHip
		{
			OFFSET 1.81638 -1.86202 0.89635
			CHANNELS 3 Zrotation Yrotation Xrotation
			JOINT LeftKnee
			{
				OFFSET 2.63464 -7.23861 0.00000
				CHANNELS 3 Zrotation Yrotation Xrotation
				JOINT LeftAnkle
				{
					OFFSET 2.45871 -6.75336 0.00000
					CHANNELS 3 Zrotation Yrotation Xrotation
					JOINT LeftToe
					{
						OFFSET 0.34235 -0.94059 2.20020
						CHANNELS 3 Zrotation Yrotation Xrotation
						End Site
						{
							OFFSET 0.00000 -0.00000 1.18611
						}
					}
				}
			}
		}
	}
	JOINT RHipJoint
	{
		OFFSET 0 0 0
		CHANNELS 3 Zrotation Yrotation Xrotation
		JOINT RightHip
		{
			OFFSET -1.84405 -1.86203 0.89635
			CHANNELS 3 Zrotation Yrotation Xrotation
			JOINT RightKnee
			{
				OFFSET -2.71067 -7.44751 0.00000
				CHANNELS 3 Zrotation Yrotation Xrotation
				JOINT RightAnkle
				{
					OFFSET -2.47159 -6.79060 0.00000
					CHANNELS 3 Zrotation Yrotation Xrotation
					JOINT RightToe
					{
						OFFSET -0.26223 -0.72048 2.36007
						CHANNELS 3 Zrotation Yrotation Xrotation
						End Site
						{
							OFFSET -0.00000 -0.00000 1.23343
						}
					}
				}
			}
		}
	}
	JOINT lowerback
	{
		OFFSET 0 0 0
		CHANNELS 3 Zrotation Yrotation Xrotation
		JOINT Chest
		{
			OFFSET 0.02089 1.99248 -0.22512
			CHANNELS 3 Zrotation Yrotation Xrotation
			JOINT Chest2
			{
				OFFSET 0.01476 2.01356 -0.03079
				CHANNELS 3 Zrotation Yrotation Xrotation
				JOINT lowerneck
				{
					OFFSET 0 0 0
					CHANNELS 3 Zrotation Yrotation Xrotation
					JOINT Neck
					{
						OFFSET 0.04846 1.65098 0.06663
						CHANNELS 3 Zrotation Yrotation Xrotation
						JOINT Head
						{
							OFFSET -0.06061 1.60634 -0.07565
							CHANNELS 3 Zrotation Yrotation Xrotation
							End Site
							{
								OFFSET -0.02954 1.73562 -0.03642
							}
						}
					}
				}
				JOINT LeftCollar
				{
					OFFSET 0 0 0
					CHANNELS 3 Zrotation Yrotation Xrotation
					JOINT LeftShoulder
					{
						OFFSET 3.45234 1.47051 -0.06993
CHANNELS 3 Zrotation Xrotation Yrotation
						JOINT LeftElbow
						{
OFFSET 0 -5.493130 0.000000
CHANNELS 3 Zrotation Xrotation Yrotation
							JOINT LeftWrist
							{
OFFSET 0 -3.290370 0.000000
CHANNELS 3 Zrotation Xrotation Yrotation
								JOINT lhand
								{
									OFFSET 0 0 0
CHANNELS 3 Zrotation Xrotation Yrotation
									JOINT LFingers
									{
OFFSET 0 -0.729660 0.000000
CHANNELS 3 Zrotation Xrotation Yrotation
										End Site
										{
OFFSET 0 -0.588270 0.000000
										}
									}
								}
								JOINT LThumb
								{
OFFSET 0 0.000000 0.000000
CHANNELS 3 Zrotation Xrotation Yrotation
									End Site
									{
OFFSET 0 -0.597250 0.597250
									}
								}
							}
						}
					}
				}
				JOINT RightCollar
				{
					OFFSET 0 0 0
					CHANNELS 3 Zrotation Yrotation Xrotation
					JOINT RightShoulder
					{
						OFFSET -3.41935 1.44327 0.20453
CHANNELS 3 Zrotation Xrotation Yrotation
						JOINT RightElbow
						{
OFFSET 0 -5.236840 0.000000
CHANNELS 3 Zrotation Xrotation Yrotation
							JOINT RightWrist
							{
OFFSET 0 -3.382510 0.000000
CHANNELS 3 Zrotation Xrotation Yrotation
								JOINT rhand
								{
									OFFSET 0 0 0
CHANNELS 3 Zrotation Xrotation Yrotation
									JOINT RFingers
									{
OFFSET 0 -0.691450 0.000000
CHANNELS 3 Zrotation Xrotation Yrotation
										End Site
										{
OFFSET 0 -0.557470 0.000000
										}
									}
								}
								JOINT RThumb
								{
OFFSET 0 0.000000 0.000000
CHANNELS 3 Zrotation Xrotation Yrotation
									End Site
									{
OFFSET 0 -0.565980 0.565980
									}
								}
							}
						}
					}
				}
			}
		}
	}
}
MOTION
Frames: 4
Frame Time: 0.008333333333333333
-9.677957 17.322972 0.411563 -489.266329 -78.428711 480.103948 0.000000 0.000000 0.000000 -6.789348 8.194189 -2.760281 4.849042 13.211757 40.166298 2.418260 -0.314697 -29.374875 0.167255 -2.635025 -7.264163 0.000000 0.000000 0.000000 24.207283 -0.186397 4.274884 -1.844125 -8.533612 24.346934 -0.935807 -3.869847 -20.063977 -0.002689 0.333770 -0.916974 2.717618 3.066882 13.277223 0.980043 4.093061 5.922403 -1.067131 1.943195 -1.082393 7.834246 1.067873 -6.315568 -2.809571 0.406827 22.416633 -2.251195 0.373318 7.993869 0.000000 0.000000 0.000000 12.362272 14.393716 -25.456451 48.739263 -52.474138 25.170760 5.952024 -3.523418 -8.037618 0.000000 0.000000 0.000000 -7.125000 0.000000 0.000000 -17.690916 37.498720 -3.395624 0.000000 0.000000 0.000000 -12.454472 8.551633 30.481220 -34.796280 -44.665932 -14.670041 -9.594071 10.919726 20.515538 0.000000 0.000000 0.000000 7.125000 0.000000 0.000000 18.650188 49.819259 -2.286410
-9.742737 17.283914 0.346056 -490.839471 -77.140425 480.833200 0.000000 0.000000 0.000000 -5.463790 8.136887 -1.282747 4.925481 13.299324 40.499618 2.511242 -0.219829 -29.970627 0.187062 -2.785335 -7.681631 0.000000 0.000000 0.000000 25.039357 -1.096338 5.354966 -1.766325 -8.361362 23.817044 -0.961513 -2.596323 -19.632248 -0.001974 0.286199 -0.786317 3.278365 3.061582 12.860641 1.358016 4.144774 5.927028 -0.970444 1.977328 -0.837604 8.189531 1.259901 -6.187053 -2.528435 0.532691 22.827734 -2.213039 0.483570 8.123316 0.000000 0.000000 0.000000 12.277079 14.972371 -25.841713 49.905267 -52.957015 26.098593 5.616449 -3.538786 -7.235708 0.000000 0.000000 0.000000 -7.125000 0.000000 0.000000 -17.770403 36.709474 -3.771146 0.000000 0.000000 0.000000 -12.786955 8.317317 32.488762 -36.360297 -45.758754 -15.780302 -9.125261 10.187414 19.723295 0.000000 0.000000 0.000000 7.125000 0.000000 0.000000 18.741726 48.996206 -1.908169
-9.816121 17.243176 0.290151 -492.182723 -76.177131 481.306259 0.000000 0.000000 0.000000 -4.682881 7.809551 0.517779 4.906419 13.277609 40.416657 2.606998 0.327215 -30.715927 0.183624 -2.759798 -7.610623 0.000000 0.000000 0.000000 25.517516 -2.028246 6.426244 -1.718199 -8.252631 23.484023 -0.997339 -1.364623 -19.407845 -0.001386 0.243158 -0.668070 3.679754 2.999258 12.330968 1.671899 4.091164 5.939453 -0.831703 1.959463 -0.534495 8.455896 1.432142 -6.050104 -2.209779 0.625977 23.349388 -2.151127 0.575077 8.287522 0.000000 0.000000 0.000000 12.362294 15.470754 -26.607288 51.107077 -53.431958 27.060922 5.005072 -3.625952 -6.340550 0.000000 0.000000 0.000000 -7.125000 0.000000 0.000000 -18.054079 35.817339 -4.249181 0.000000 0.000000 0.000000 -13.121831 8.210376 34.283970 -38.137154 -46.925390 -17.066181 -8.785768 9.547157 18.824101 0.000000 0.000000 0.000000 7.125000 0.000000 0.000000 18.678282 48.092712 -1.473314
-9.896386 17.202606 0.245384 -493.286227 -75.403630 481.597304 0.000000 0.000000 0.000000 -4.282451 7.340338 2.440310 4.819912 13.178083 40.038756 2.701682 1.234345 -31.576873 0.158482 -2.564297 -7.067932 0.000000 0.000000 0.000000 25.794087 -2.921387 7.394749 -1.694950 -8.199462 23.321448 -1.033360 -0.216517 -19.299696 -0.001080 0.216456 -0.594685 4.098183 2.891962 11.630555 1.943693 3.966817 5.937097 -0.730345 1.910697 -0.152300 8.669529 1.576244 -5.874796 -1.942993 0.696647 23.900712 -2.099780 0.647084 8.453960 0.000000 0.000000 0.000000 12.617881 15.864588 -27.723208 52.440349 -53.932942 28.135227 4.000878 -3.749486 -5.369352 0.000000 0.000000 0.000000 -7.125000 0.000000 0.000000 -18.633344 34.836681 -4.867568 0.000000 0.000000 0.000000 -13.450776 8.255579 35.830833 -40.179571 -48.173818 -18.573617 -8.556095 8.923976 17.957951 0.000000 0.000000 0.000000 7.125000 0.000000 0.000000 18.540891 47.237028 -1.058433
